# xmcd
#
# Track frame offsets: 
#        150
#        19806
#        32157
#        47351
#        64874
#        82839
#        98295
#        117063
#        135402
#        150268
#        169454
#
# Disc length: 2513 seconds
#
# Revision: 0
# Processed by: cddbd v1.5.2PL0 Copyright (c) Steve Scherf et al.
# Submitted via: ExactAudioCopy v1.3
#
DISCID=7409cf0b
DTITLE=Goodnight Texas - A Long Life of Living
DYEAR=2019
DGENRE=Country
TTITLE0=I'm Going to Work on Maggie's Farm Forever
TTITLE1=Submarines
TTITLE2=Old St. John
TTITLE3=Jesse Got Trapped in a Coal Mine
TTITLE4=California You're a Hole in My Heart
TTITLE5=Meet Me By the Smokestack
TTITLE6=The Railroad
TTITLE7=Chapel Hill
TTITLE8=Plan of Attack
TTITLE9=Harmony
TTITLE10=Car Parts and Linens
EXTD=
EXTT0=
EXTT1=
EXTT2=
EXTT3=
EXTT4=
EXTT5=
EXTT6=
EXTT7=
EXTT8=
EXTT9=
EXTT10=
PLAYORDER=
